<?xml version="1.0" encoding="utf-8"?>
<!-- Generator: Adobe Illustrator 27.0.0, SVG Export Plug-In . SVG Version: 6.00 Build 0)  -->
<svg version="1.1" id="Layer_1" xmlns="http://www.w3.org/2000/svg" xmlns:xlink="http://www.w3.org/1999/xlink" x="0px" y="0px"
	 viewBox="0 0 237.4 196.7" style="enable-background:new 0 0 237.4 196.7;" xml:space="preserve">
<style type="text/css">
	.st0{fill:#FFFFFF;}
	.st1{fill:#03F3D5;}
	.st2{fill:#030933;}
</style>
<rect x="1014.4" y="-876.9" width="1853.6" height="2147.7"/>
<g>
	<path class="st0" d="M2085.1,476.3c-8,0-14.8,0-22.1,0c0-57.8,0-115.1,0-173c6.9,0,13.4,0,20.7,0c0,5.1,0,10,0,17.4
		c13.9-14.8,29.7-20.4,47.6-18.9c18,1.4,33.4,8.4,44.4,23.4c17.8,24.3,15.4,61.7-5.1,82.5c-22.4,22.7-53.5,23.4-85.5,1
		C2085.1,431.7,2085.1,453.8,2085.1,476.3z M2164.5,363.9c0.3-24.1-16.5-41.9-39.5-42c-23.2-0.1-40.3,17.3-40.6,41.2
		c-0.3,23.8,16.8,41.9,39.7,42.2C2146.9,405.6,2164.2,387.9,2164.5,363.9z"/>
	<path class="st0" d="M1909.2,368.7c-7.5,6.9-14.8,13.2-21.4,19.9c-1.7,1.8-2.4,5.2-2.5,7.9c-0.3,6.9-0.4,13.9-0.1,20.8
		c0.2,5.3-1.9,7.1-7,6.8c-4.7-0.3-9.5-0.1-15.3-0.1c-0.2-3-0.4-5.5-0.4-8c0-53.8,0.1-107.6-0.2-161.4c0-7,1.9-9.9,8.9-8.9
		c1.8,0.3,3.8,0.3,5.6,0c6.9-1,8.5,2.4,8.5,8.7c-0.2,32-0.1,63.9-0.1,95.9c0,2.9,0,5.8,0,10.8c3.8-3.1,6.4-4.9,8.8-7.1
		c15.3-14,31-27.7,45.8-42.3c6.9-6.8,13.9-10,23.4-8.7c3.7,0.5,7.4,0.1,10.3,0.1c-15.6,15.9-31.5,31.9-48,48.7
		c19,24.3,37,47.2,55,70.3c-14.9,5.2-26.4,2.1-35.2-8.9C1933.4,398.5,1921.5,383.9,1909.2,368.7z"/>
	<path class="st0" d="M1735.1,392.4c11.9,4.7,23,10.7,34.8,13.4c9,2,19,0.7,28.3-0.8c7.3-1.2,11.7-6.9,11.7-15
		c0-8.1-5.4-11.2-12-12.7c-10.1-2.4-20.3-4.1-30.4-6.3c-4.1-0.9-8.3-2-12.3-3.4c-11.3-4.2-19.1-11.6-20.5-24.1
		c-1.6-14.4,2.6-26.8,15.7-34.1c21.9-12.1,44.1-9.1,65.8,1c1.8,0.9,3.4,4,3.7,6.2c0.6,4.4,0.2,9,0.2,13.9
		c-10.5-2.9-20.2-6.5-30.2-7.9c-7.4-1.1-15.3,0.1-22.7,1.6c-6.2,1.2-9.8,6-10,12.8c-0.3,7,3.5,11.3,9.7,12.9c11,2.9,22.3,5,33.4,7.6
		c4.1,1,8.3,2,12.2,3.5c11.4,4.2,18.9,11.9,20.2,24.4c1.3,13-3.4,23.5-14.4,30.9c-19.9,13.3-59.9,12.3-79.1-2.1
		C1730.8,407.7,1736.3,399,1735.1,392.4z"/>
	<path class="st0" d="M1998.5,265c9.2,0,17.3,0,26,0c0.2,2.3,0.5,4.4,0.4,6.4c-1.1,31.9-2.4,63.8-3.4,95.7c-0.2,5.7-2.6,8-7.8,6.8
		c-4.1-0.9-11.2,3.7-11.6-5.2C2000.9,334.6,1999.8,300.3,1998.5,265z"/>
	<path class="st0" d="M2060.9,561.4c8.5-12.3,16.5-22.9,23.3-34.1c4.6-7.7,10.1-10.2,19.6-7.3c-1.1,5.7-2.3,11.5-3.5,17.3
		c-2.2,10.4-4.8,20.8-6.5,31.2c-1.2,7.4-4.8,8.6-11.5,6c2.5-12.1,5-24,7.5-35.9c-0.5-0.3-1-0.6-1.4-0.8c-5,7.2-10,14.5-14.9,21.7
		c-3,4.4-5.7,9.1-9.2,13c-1.6,1.8-5,2.9-7.5,2.8c-1.4-0.1-3.4-3-3.9-5c-3.1-10.9-5.9-21.9-10.3-32.8c-2.2,10.3-4.7,20.5-6.6,30.8
		c-1.1,6.4-3.8,9-11.2,6.3c0.9-4.9,1.8-10,2.9-15c2.5-11.7,5.2-23.4,7.5-35.1c0.8-4.2,2.7-5.9,6.9-5.8c4.3,0.1,7.6,0.3,8.9,5.6
		C2053.8,536.1,2057.2,547.7,2060.9,561.4z"/>
	<path class="st0" d="M1705.3,519.6c0.7,6.2-1.5,8.7-7.1,7.8c-0.5-0.1-1.1-0.1-1.6-0.1c-24.2-0.7-32.1,7.3-31.5,31.9
		c0.1,5.7,3.1,8.2,8.5,8.2c7.1,0,14.3,0,21.3,0c1.4,6-0.6,8.9-6.1,8.9c-7.7-0.1-15.4,0-23-0.7c-7.6-0.7-12-5.8-10.9-13.1
		c1.8-11.4,4.4-22.8,8-33.8c1.2-3.6,5.8-7.3,9.6-8.6C1683.2,516.5,1694.4,517.3,1705.3,519.6z"/>
	<path class="st0" d="M1728.2,576.9c-19.8,0.1-22.9-3.7-19-23.3c3.7-18.7,23-27.9,39.6-18.3c2.7,1.6,4.5,6.3,4.9,9.8
		c0.4,4.1-1,8.4-1.9,12.5C1748.4,574.1,1745,576.8,1728.2,576.9z M1727.7,568.7c10.5,0,20.2-14.4,15.9-24.3
		c-0.7-1.5-3.1-2.8-4.9-3.3c-12.4-3-17.2,0.9-20.2,16.1C1716.5,567.1,1717.8,568.7,1727.7,568.7z"/>
	<path class="st0" d="M2128.4,576.9c-19.5,0-22.7-3.7-18.9-22.7c0.8-3.9,1-8.4,3.2-11.4c2.7-3.7,6.8-7.9,11-8.8
		c6.6-1.5,13.7-0.8,20.6-0.4c7,0.4,11,4.5,9.9,11.6c-1.1,7.6-2.5,15.2-4.8,22.5C2147,574.9,2141.5,576.8,2128.4,576.9z
		 M2128.2,568.7c10.4,0,20.2-15.1,15.6-24.5c-0.7-1.5-3.2-2.7-5-3.2c-12.6-2.9-17.4,1.1-20,16.4
		C2117.2,567.4,2118.3,568.7,2128.2,568.7z"/>
	<path class="st0" d="M1884.8,557.9c-3.7,7.1-1.2,10.3,5.5,10.6c6.1,0.3,12.2,0.1,19.6,1.9c-2.1,1.9-4,5.1-6.2,5.3
		c-7.4,0.6-14.8,0.5-22.2-0.2c-6.5-0.6-9.4-5.3-8.5-11.3c1-7.1,2-14.5,5-20.8c2-4.1,7.1-7.8,11.6-9.4c4.8-1.7,10.6-1.5,15.7-0.6
		c3.7,0.7,9.3,3.4,9.8,6c1,5.4-0.6,11.4-1.7,17.1c-0.2,0.8-3.8,1.3-5.8,1.3C1899.9,558,1892.2,557.9,1884.8,557.9z M1905.3,550.8
		c2.1-6,1-9.4-5.2-10.1c-8.5-1-12.6,1.8-13.9,10.1C1892.4,550.8,1898.6,550.8,1905.3,550.8z"/>
	<path class="st0" d="M2233,571c-2.1,1.6-4.1,4.5-6.3,4.7c-6.8,0.7-13.8,1-20.6,0.2c-8.5-1-11.2-5.3-10.1-14
		c0.3-2.4,0.8-4.7,1.3-7.1c3.8-19.5,14.9-26.4,34.1-21.2c8,2.2,8.3,8,7.4,14.5c-0.7,5.8-1.7,11.1-9.9,9.9
		c-5.5-0.8-11.2-0.5-16.7,0.1c-2.2,0.2-4.2,2.7-6.3,4.1c1.9,2.1,3.6,5.7,5.8,5.9c6.5,0.8,13.2,0.3,19.8,0.3
		C2232,569.3,2232.5,570.1,2233,571z M2208.9,551.3c5.9,0,11.1,0.3,16.3-0.2c1.4-0.1,3.6-2.2,3.8-3.7c0.3-1.7-0.7-4.4-2-5.3
		C2220.8,537.5,2210.8,542,2208.9,551.3z"/>
	<path class="st0" d="M1792.5,574.6c1.5-7.2,3.3-14.1,4.3-21.2c0.6-4.2,3.8-9.8-3.4-12c-7.2-2.3-15.2,0.9-17.2,7.5
		c-2,6.6-3.5,13.4-4.5,20.2c-1,6.5-4.3,7.8-11.1,5.7c2.7-12.7,5.2-25.4,8.3-37.9c0.4-1.5,4.4-2.6,6.9-3c3.2-0.5,6.5,0.1,9.7-0.1
		c2.9-0.2,5.8-1.1,8.7-1c11.3,0.1,14.9,4.2,13.2,15.5c-1.1,7.1-2.9,14.1-4,21.2C1802.4,575.4,1799.2,576.9,1792.5,574.6z"/>
	<path class="st0" d="M1817.2,574.7c2.6-12.6,5-25.1,7.9-37.4c1.2-5.1,6-5.1,9-1.9c7.7-0.8,14.2-2.3,20.5-2
		c7.8,0.4,10.8,4.6,9.7,12.4c-1.2,8.7-3.2,17.2-5.1,25.8c-1.3,6-5.6,4-10.3,3.5c1.5-7.7,3.2-14.9,4.3-22.2c0.7-4.3,3.8-9.7-3.7-11.7
		c-7.1-1.8-14.8,1-16.7,7c-2.1,6.6-3.6,13.4-4.7,20.2C1827.3,574.4,1825,577.2,1817.2,574.7z"/>
	<path class="st0" d="M1973.9,542.3c-3.3-0.5-5.6-0.9-10.8-1.8c3.5-3.3,5.4-6.7,7.5-6.7c5.1-0.1,6.4-2.9,6.9-6.8
		c0.8-6.6,4.7-6.6,10.2-5c-0.4,3.6-0.7,7-1.2,10.7c3.3,0.5,6.4,0.9,9.6,1.4c0.7,5.1-0.8,8.1-6.2,7.5c-4.8-0.5-6.7,1.9-7.1,6.4
		c-0.3,2.6-1.1,5.2-1.6,7.8c-2.2,11.1-2.2,11.1,8.5,14c0.5,8.2-5.7,5.7-9.8,5.8c-5.9,0.1-11.1-1.7-10.2-9
		C1970.7,558.7,1972.4,550.9,1973.9,542.3z"/>
	<path class="st0" d="M1955,568.6c-1.3,2.9-2.1,6.2-2.9,6.2c-8.3,0.1-17.1,1.2-24.7-1.1c-7.6-2.3-5.5-10.5-4.4-16.7
		c4-22.8,12.5-28,37.3-22.5c1,4.7,0.1,7.1-5.8,6.8c-16.3-1.1-18.8,1.1-21.7,17c-1.4,7.7,0.5,10.1,8.5,10.4c2.1,0.1,4.2-0.1,6.4-0.1
		C1949.5,568.6,1951.3,568.6,1955,568.6z"/>
	<path class="st1" d="M2012.2,396c8.7,0.1,14.5,6,14.2,14.7c-0.2,8.4-6.6,14.5-14.9,14.3c-8.3-0.2-14.5-6.7-14.4-14.9
		C1997.2,401.8,2003.5,395.9,2012.2,396z"/>
	<path class="st0" d="M2178.6,537.1c5.4-1.8,10-3.3,15.2-5c1.3,6.3,0.5,9.7-5.8,10.4c-7.5,0.8-11.7,5.6-13.2,12.9
		c-0.9,4.4-2.4,8.7-2.9,13.2c-0.7,6.2-3.5,8.6-11,6.1c2.7-12.8,5.1-26,8.4-38.9C2170.4,531.9,2175.6,532.9,2178.6,537.1z"/>
	<path class="st0" d="M2256.2,566.5c-0.4,9.6-1.2,10.2-10.9,8.2C2245.2,565.2,2245.6,564.9,2256.2,566.5z"/>
</g>
<path class="st0" d="M2568.4-323.8c0,16.2,0,32.4,0,48.5c-0.5,3.1-1,6.2-1.4,9.3c-4.8,47.3-7.5,95-14.8,141.9
	c-16.4,104.6-51,203.2-104,295.3c-19.7,34.3-48.1,49.7-87,47.8c-29.7-1.5-59.4-2.7-89.1-3.8c-82.2-3.2-164.4-7.3-246.7-9.2
	c-53.1-1.3-106.3-1.2-159.3,1.5c-69.8,3.5-138.7,16.1-207,30.4c-36.1,7.6-63.2,27-74.9,63.1c-12,36.6-4.9,69.9,20.6,99.2
	c10,11.5,19.2,23.8,29.3,36.4c-2.3,0.3-2.9,0.5-3.4,0.4c-59.7-11.7-111.9-37.4-153.7-82.3c-57.3-61.7-81.3-136.2-83.6-218.9
	c-1.8-65.7,9.1-129.8,23.3-193.7c18.8-84.7,68.4-142.5,149-174.1c124-48.6,250.7-88.2,380.8-116.5c92.3-20.1,185.5-34.6,279.6-42.4
	c88.2-7.3,176.6-6.1,265-5.2c26.3,0.3,48.3,12.2,62.1,35.1C2560.1-349.6,2563.5-336.3,2568.4-323.8z M2344.3-171.9
	c-0.2-2.9-0.6-8.4-1-13.9c-5.3-64.1-61.7-105.7-124.6-91.9c-84.2,18.5-144.1,97.1-140.6,184.4c2.9,71.3,61.7,115.1,130.9,97.5
	C2288.8-16.1,2342.5-84.9,2344.3-171.9z M1839.9,53c5.7-0.7,11.5-0.9,17.1-2.1c53.5-11.6,91.9-55.3,97.9-111
	c6.3-58.3-40.9-97.7-97-80.9c-52.6,15.7-91.1,72.3-86.4,127C1774.8,25.7,1802.3,52.5,1839.9,53z M1561.4,50.6
	c-0.4,31.4,25.1,53.3,54.2,46.5c29-6.7,56.6-40,57.8-69.7c1.2-30.1-19.1-49.4-48.9-46.5C1591.2-15.9,1561.9,16.5,1561.4,50.6z"/>
<path class="st2" d="M2344.3-171.9c-1.8,87-55.5,155.8-135.4,176.1c-69.1,17.6-128-26.3-130.9-97.5
	c-3.5-87.3,56.4-165.9,140.6-184.4c63-13.8,119.3,27.8,124.6,91.9C2343.7-180.2,2344-174.8,2344.3-171.9z"/>
<path class="st2" d="M1839.9,53c-37.5-0.6-65-27.3-68.4-67c-4.6-54.7,33.9-111.3,86.4-127c56.1-16.8,103.3,22.5,97,80.9
	c-6,55.8-44.4,99.4-97.9,111C1851.4,52.2,1845.6,52.4,1839.9,53z"/>
<path class="st2" d="M1561.4,50.6c0.5-34.1,29.8-66.4,63-69.7c29.9-2.9,50.1,16.3,48.9,46.5c-1.2,29.6-28.8,63-57.8,69.7
	C1586.5,103.9,1561,81.9,1561.4,50.6z"/>
<g>
	<g>
		<path class="st2" d="M137.8,169.3c-1.5,0-2.7,0-4.1,0c0-10.6,0-21.2,0-31.8c1.3,0,2.5,0,3.8,0c0,0.9,0,1.8,0,3.2
			c2.6-2.7,5.5-3.7,8.8-3.5c3.3,0.3,6.1,1.5,8.2,4.3c3.3,4.5,2.8,11.3-0.9,15.2c-4.1,4.2-9.8,4.3-15.7,0.2
			C137.8,161.1,137.8,165.2,137.8,169.3z M152.4,148.7c0-4.4-3-7.7-7.3-7.7c-4.3,0-7.4,3.2-7.5,7.6c0,4.4,3.1,7.7,7.3,7.8
			C149.2,156.3,152.4,153.1,152.4,148.7z"/>
		<path class="st2" d="M105.5,149.5c-1.4,1.3-2.7,2.4-3.9,3.7c-0.3,0.3-0.4,1-0.5,1.5c-0.1,1.3-0.1,2.5,0,3.8c0,1-0.3,1.3-1.3,1.2
			c-0.9-0.1-1.8,0-2.8,0c0-0.5-0.1-1-0.1-1.5c0-9.9,0-19.8,0-29.7c0-1.3,0.3-1.8,1.6-1.6c0.3,0.1,0.7,0,1,0c1.3-0.2,1.6,0.4,1.6,1.6
			c0,5.9,0,11.8,0,17.6c0,0.5,0,1.1,0,2c0.7-0.6,1.2-0.9,1.6-1.3c2.8-2.6,5.7-5.1,8.4-7.8c1.3-1.2,2.6-1.8,4.3-1.6
			c0.7,0.1,1.4,0,1.9,0c-2.9,2.9-5.8,5.9-8.8,9c3.5,4.5,6.8,8.7,10.1,12.9c-2.7,1-4.8,0.4-6.5-1.6
			C109.9,155,107.8,152.3,105.5,149.5z"/>
		<path class="st2" d="M73.5,153.9c2.2,0.9,4.2,2,6.4,2.5c1.6,0.4,3.5,0.1,5.2-0.1c1.3-0.2,2.1-1.3,2.2-2.8c0-1.5-1-2.1-2.2-2.3
			c-1.9-0.4-3.7-0.8-5.6-1.2c-0.8-0.2-1.5-0.4-2.3-0.6c-2.1-0.8-3.5-2.1-3.8-4.4c-0.3-2.6,0.5-4.9,2.9-6.3c4-2.2,8.1-1.7,12.1,0.2
			c0.3,0.2,0.6,0.7,0.7,1.1c0.1,0.8,0,1.7,0,2.6c-1.9-0.5-3.7-1.2-5.6-1.5c-1.4-0.2-2.8,0-4.2,0.3c-1.1,0.2-1.8,1.1-1.8,2.3
			c-0.1,1.3,0.6,2.1,1.8,2.4c2,0.5,4.1,0.9,6.1,1.4c0.8,0.2,1.5,0.4,2.3,0.6c2.1,0.8,3.5,2.2,3.7,4.5c0.2,2.4-0.6,4.3-2.6,5.7
			c-3.7,2.4-11,2.3-14.5-0.4C72.7,156.7,73.7,155.1,73.5,153.9z"/>
		<path class="st2" d="M121.9,130.5c1.7,0,3.2,0,4.8,0c0,0.4,0.1,0.8,0.1,1.2c-0.2,5.9-0.4,11.7-0.6,17.6c0,1-0.5,1.5-1.4,1.3
			c-0.8-0.2-2.1,0.7-2.1-0.9C122.4,143.3,122.2,137,121.9,130.5z"/>
		<path class="st2" d="M133.4,185c1.6-2.3,3-4.2,4.3-6.3c0.8-1.4,1.9-1.9,3.6-1.3c-0.2,1-0.4,2.1-0.6,3.2c-0.4,1.9-0.9,3.8-1.2,5.7
			c-0.2,1.4-0.9,1.6-2.1,1.1c0.5-2.2,0.9-4.4,1.4-6.6c-0.1-0.1-0.2-0.1-0.3-0.2c-0.9,1.3-1.8,2.7-2.7,4c-0.6,0.8-1,1.7-1.7,2.4
			c-0.3,0.3-0.9,0.5-1.4,0.5c-0.3,0-0.6-0.6-0.7-0.9c-0.6-2-1.1-4-1.9-6c-0.4,1.9-0.9,3.8-1.2,5.7c-0.2,1.2-0.7,1.7-2.1,1.2
			c0.2-0.9,0.3-1.8,0.5-2.8c0.5-2.2,1-4.3,1.4-6.5c0.2-0.8,0.5-1.1,1.3-1.1c0.8,0,1.4,0.1,1.6,1C132.1,180.3,132.7,182.5,133.4,185z
			"/>
		<path class="st2" d="M68,177.3c0.1,1.1-0.3,1.6-1.3,1.4c-0.1,0-0.2,0-0.3,0c-4.5-0.1-5.9,1.3-5.8,5.9c0,1,0.6,1.5,1.6,1.5
			c1.3,0,2.6,0,3.9,0c0.3,1.1-0.1,1.6-1.1,1.6c-1.4,0-2.8,0-4.2-0.1c-1.4-0.1-2.2-1.1-2-2.4c0.3-2.1,0.8-4.2,1.5-6.2
			c0.2-0.7,1.1-1.3,1.8-1.6C64,176.7,66,176.9,68,177.3z"/>
		<path class="st2" d="M72.2,187.8c-3.6,0-4.2-0.7-3.5-4.3c0.7-3.4,4.2-5.1,7.3-3.4c0.5,0.3,0.8,1.2,0.9,1.8
			c0.1,0.7-0.2,1.5-0.3,2.3C75.9,187.3,75.3,187.8,72.2,187.8z M72.1,186.3c1.9,0,3.7-2.7,2.9-4.5c-0.1-0.3-0.6-0.5-0.9-0.6
			c-2.3-0.6-3.2,0.2-3.7,3C70.1,186,70.3,186.3,72.1,186.3z"/>
		<path class="st2" d="M145.8,187.8c-3.6,0-4.2-0.7-3.5-4.2c0.1-0.7,0.2-1.5,0.6-2.1c0.5-0.7,1.3-1.4,2-1.6c1.2-0.3,2.5-0.1,3.8-0.1
			c1.3,0.1,2,0.8,1.8,2.1c-0.2,1.4-0.5,2.8-0.9,4.1C149.2,187.5,148.2,187.8,145.8,187.8z M145.8,186.3c1.9,0,3.7-2.8,2.9-4.5
			c-0.1-0.3-0.6-0.5-0.9-0.6c-2.3-0.5-3.2,0.2-3.7,3C143.7,186.1,143.9,186.3,145.8,186.3z"/>
		<path class="st2" d="M101,184.3c-0.7,1.3-0.2,1.9,1,2c1.1,0.1,2.2,0,3.6,0.3c-0.4,0.3-0.7,0.9-1.1,1c-1.4,0.1-2.7,0.1-4.1,0
			c-1.2-0.1-1.7-1-1.6-2.1c0.2-1.3,0.4-2.7,0.9-3.8c0.4-0.8,1.3-1.4,2.1-1.7c0.9-0.3,2-0.3,2.9-0.1c0.7,0.1,1.7,0.6,1.8,1.1
			c0.2,1-0.1,2.1-0.3,3.1c0,0.1-0.7,0.2-1.1,0.2C103.8,184.3,102.4,184.3,101,184.3z M104.8,183c0.4-1.1,0.2-1.7-1-1.9
			c-1.6-0.2-2.3,0.3-2.6,1.9C102.4,183,103.6,183,104.8,183z"/>
		<path class="st2" d="M165,186.7c-0.4,0.3-0.7,0.8-1.2,0.9c-1.3,0.1-2.5,0.2-3.8,0c-1.6-0.2-2.1-1-1.9-2.6c0.1-0.4,0.2-0.9,0.2-1.3
			c0.7-3.6,2.7-4.8,6.3-3.9c1.5,0.4,1.5,1.5,1.4,2.7c-0.1,1.1-0.3,2-1.8,1.8c-1-0.1-2.1-0.1-3.1,0c-0.4,0-0.8,0.5-1.2,0.8
			c0.4,0.4,0.7,1,1.1,1.1c1.2,0.1,2.4,0.1,3.6,0.1C164.8,186.4,164.9,186.6,165,186.7z M160.6,183.1c1.1,0,2,0,3,0
			c0.3,0,0.7-0.4,0.7-0.7c0.1-0.3-0.1-0.8-0.4-1C162.8,180.6,160.9,181.4,160.6,183.1z"/>
		<path class="st2" d="M84.1,187.4c0.3-1.3,0.6-2.6,0.8-3.9c0.1-0.8,0.7-1.8-0.6-2.2c-1.3-0.4-2.8,0.2-3.2,1.4
			c-0.4,1.2-0.6,2.5-0.8,3.7c-0.2,1.2-0.8,1.4-2,1c0.5-2.3,1-4.7,1.5-7c0.1-0.3,0.8-0.5,1.3-0.5c0.6-0.1,1.2,0,1.8,0
			c0.5,0,1.1-0.2,1.6-0.2c2.1,0,2.7,0.8,2.4,2.8c-0.2,1.3-0.5,2.6-0.7,3.9C85.9,187.5,85.3,187.8,84.1,187.4z"/>
		<path class="st2" d="M88.6,187.4c0.5-2.3,0.9-4.6,1.5-6.9c0.2-0.9,1.1-0.9,1.7-0.4c1.4-0.2,2.6-0.4,3.8-0.4c1.4,0.1,2,0.8,1.8,2.3
			c-0.2,1.6-0.6,3.2-0.9,4.7c-0.2,1.1-1,0.7-1.9,0.6c0.3-1.4,0.6-2.7,0.8-4.1c0.1-0.8,0.7-1.8-0.7-2.1c-1.3-0.3-2.7,0.2-3.1,1.3
			c-0.4,1.2-0.7,2.5-0.9,3.7C90.5,187.4,90,187.9,88.6,187.4z"/>
		<path class="st2" d="M117.4,181.5c-0.6-0.1-1-0.2-2-0.3c0.6-0.6,1-1.2,1.4-1.2c0.9,0,1.2-0.5,1.3-1.3c0.2-1.2,0.9-1.2,1.9-0.9
			c-0.1,0.7-0.1,1.3-0.2,2c0.6,0.1,1.2,0.2,1.8,0.3c0.1,0.9-0.1,1.5-1.1,1.4c-0.9-0.1-1.2,0.4-1.3,1.2c0,0.5-0.2,1-0.3,1.4
			c-0.4,2-0.4,2,1.6,2.6c0.1,1.5-1,1.1-1.8,1.1c-1.1,0-2-0.3-1.9-1.7C116.8,184.5,117.1,183,117.4,181.5z"/>
		<path class="st2" d="M113.9,186.3c-0.2,0.5-0.4,1.1-0.5,1.1c-1.5,0-3.1,0.2-4.5-0.2c-1.4-0.4-1-1.9-0.8-3.1
			c0.7-4.2,2.3-5.1,6.9-4.1c0.2,0.9,0,1.3-1.1,1.2c-3-0.2-3.5,0.2-4,3.1c-0.3,1.4,0.1,1.9,1.6,1.9c0.4,0,0.8,0,1.2,0
			C112.9,186.3,113.2,186.3,113.9,186.3z"/>
		<path class="st1" d="M124.4,154.6c1.6,0,2.7,1.1,2.6,2.7c0,1.5-1.2,2.7-2.7,2.6c-1.5,0-2.7-1.2-2.6-2.7
			C121.7,155.6,122.8,154.5,124.4,154.6z"/>
		<path class="st2" d="M155,180.5c1-0.3,1.8-0.6,2.8-0.9c0.2,1.2,0.1,1.8-1.1,1.9c-1.4,0.2-2.1,1-2.4,2.4c-0.2,0.8-0.4,1.6-0.5,2.4
			c-0.1,1.1-0.6,1.6-2,1.1c0.5-2.4,0.9-4.8,1.5-7.1C153.5,179.5,154.5,179.7,155,180.5z"/>
		<path class="st2" d="M169.3,185.9c-0.1,1.8-0.2,1.9-2,1.5C167.3,185.7,167.3,185.6,169.3,185.9z"/>
	</g>
	<path class="st2" d="M226.7,22.3c0,3,0,5.9,0,8.9c-0.1,0.6-0.2,1.1-0.2,1.7c-0.9,8.7-1.4,17.5-2.7,26.1c-3,19.2-9.4,37.3-19.1,54.3
		c-3.6,6.3-8.8,9.1-16,8.8c-5.5-0.3-10.9-0.5-16.4-0.7c-15.1-0.6-30.2-1.3-45.3-1.7c-9.8-0.2-19.5-0.2-29.3,0.3
		c-12.8,0.6-25.5,3-38.1,5.6c-6.6,1.4-11.6,5-13.8,11.6c-2.2,6.7-0.9,12.8,3.8,18.2c1.8,2.1,3.5,4.4,5.4,6.7
		c-0.4,0.1-0.5,0.1-0.6,0.1c-11-2.1-20.6-6.9-28.2-15.1c-10.5-11.3-14.9-25-15.4-40.2c-0.3-12.1,1.7-23.9,4.3-35.6
		c3.5-15.6,12.6-26.2,27.4-32c22.8-8.9,46.1-16.2,70-21.4c17-3.7,34.1-6.4,51.4-7.8c16.2-1.3,32.5-1.1,48.7-1
		c4.8,0.1,8.9,2.2,11.4,6.5C225.2,17.5,225.8,20,226.7,22.3z M185.5,50.2c0-0.5-0.1-1.5-0.2-2.5c-1-11.8-11.3-19.4-22.9-16.9
		c-15.5,3.4-26.5,17.8-25.8,33.9c0.5,13.1,11.3,21.2,24.1,17.9C175.3,78.8,185.1,66.2,185.5,50.2z M92.8,91.5
		c1.1-0.1,2.1-0.2,3.1-0.4c9.8-2.1,16.9-10.2,18-20.4c1.2-10.7-7.5-18-17.8-14.9c-9.7,2.9-16.7,13.3-15.9,23.3
		C80.8,86.5,85.9,91.4,92.8,91.5z M41.6,91.1c-0.1,5.8,4.6,9.8,10,8.5c5.3-1.2,10.4-7.4,10.6-12.8c0.2-5.5-3.5-9.1-9-8.5
		C47.1,78.9,41.7,84.8,41.6,91.1z"/>
</g>
</svg>
